<?xml version="1.0" encoding="UTF-8"?><svg id="uuid-b29d2e36-5147-42a9-b669-fd67b2a8c971" xmlns="http://www.w3.org/2000/svg" xmlns:xlink="http://www.w3.org/1999/xlink" viewBox="0 0 62 46.72"><defs><style>.uuid-0b263f51-cfee-4290-84e5-97d416b618ca{fill:#f3c202;}.uuid-0b263f51-cfee-4290-84e5-97d416b618ca,.uuid-f49be4c4-9943-47c3-8448-efaa7260f613,.uuid-ae3a2c85-6630-42cf-9e03-85021ca85bf9,.uuid-c895dc9f-b6d7-4805-88cf-5956dccf4485,.uuid-9544fa50-e455-49e4-9c7e-d6180ac0311a,.uuid-5265bd16-79aa-4724-a6e9-4fe94df946fb,.uuid-e6093373-0d28-4278-bfe0-965717a8b195,.uuid-33983efa-aa2a-4619-a143-721670e65009{fill-rule:evenodd;}.uuid-f49be4c4-9943-47c3-8448-efaa7260f613{fill:url(#uuid-d8d5fe76-a3d1-4d8e-8a7f-b38c4429567b);}.uuid-ae3a2c85-6630-42cf-9e03-85021ca85bf9{fill:url(#uuid-ce57f5d0-6e3f-4c07-8017-879498ef6ca7);}.uuid-c895dc9f-b6d7-4805-88cf-5956dccf4485{fill:url(#uuid-25411d77-03e9-4d91-abd1-3599c195a14d);}.uuid-9544fa50-e455-49e4-9c7e-d6180ac0311a{fill:url(#uuid-8997bed1-d485-48b5-8c23-8d846b22f243);}.uuid-5265bd16-79aa-4724-a6e9-4fe94df946fb{fill:#5ca1e5;}.uuid-e6093373-0d28-4278-bfe0-965717a8b195{fill:url(#uuid-0e19afb8-c3ea-46c3-becd-45ed78b3c03e);}.uuid-33983efa-aa2a-4619-a143-721670e65009{fill:url(#uuid-e3676b09-fd65-41a2-b5d0-261e04692871);}</style><linearGradient id="uuid-8997bed1-d485-48b5-8c23-8d846b22f243" x1="36.34" y1="-1.38" x2="36.34" y2="47.25" gradientUnits="userSpaceOnUse"><stop offset="0" stop-color="#ff959b"/><stop offset=".52" stop-color="#f00014"/></linearGradient><linearGradient id="uuid-ce57f5d0-6e3f-4c07-8017-879498ef6ca7" x1="48.05" y1="28.57" x2="49.01" y2="36.55" gradientUnits="userSpaceOnUse"><stop offset="0" stop-color="#71a2de"/><stop offset=".74" stop-color="#326db3"/></linearGradient><linearGradient id="uuid-0e19afb8-c3ea-46c3-becd-45ed78b3c03e" x1="43.79" y1="36.45" x2="46.6" y2="41.07" gradientUnits="userSpaceOnUse"><stop offset="0" stop-color="#4ee0d6"/><stop offset=".8" stop-color="#00aa9e"/></linearGradient><linearGradient id="uuid-25411d77-03e9-4d91-abd1-3599c195a14d" x1="20.18" y1="35.61" x2="21.22" y2="37.39" xlink:href="#uuid-0e19afb8-c3ea-46c3-becd-45ed78b3c03e"/><linearGradient id="uuid-e3676b09-fd65-41a2-b5d0-261e04692871" x1="37.78" y1="31.23" x2="38.75" y2="35.36" xlink:href="#uuid-0e19afb8-c3ea-46c3-becd-45ed78b3c03e"/><linearGradient id="uuid-d8d5fe76-a3d1-4d8e-8a7f-b38c4429567b" x1="13.14" y1="29.23" x2="14.7" y2="33.49" xlink:href="#uuid-0e19afb8-c3ea-46c3-becd-45ed78b3c03e"/></defs><path id="uuid-a96428f2-789c-40bb-a1f9-dca5f7a25fa0" class="uuid-9544fa50-e455-49e4-9c7e-d6180ac0311a" d="M33.46,9.41l-.04,37.31-10-3.25V1.29c0-.84.8-1.46,1.61-1.24l11.15,2.95c8.17,2.2,13.17,6.46,13.08,13.94-.08,8.7-4.1,12.19-11.95,9.92V9.7c0-2.07-3.86-2.19-3.86-.28h0Z"/><path class="uuid-0b263f51-cfee-4290-84e5-97d416b618ca" d="M21.7,37.15v3.89c-3.23.87-6.72,1.06-10.51.44C6.39,40.71.18,40.06,0,37.34c-.16-2.69,2.32-4.6,4.96-5.49l8.58,2.72-2.28.81c-2.8,1.02-.2,3.5,2.85,2.44l4.71-1.58,2.87.91Z"/><polygon class="uuid-0b263f51-cfee-4290-84e5-97d416b618ca" points="42.24 43.68 35.14 46.15 35.14 41.42 42.24 43.68"/><path class="uuid-ae3a2c85-6630-42cf-9e03-85021ca85bf9" d="M56.91,38.51l-.17.04-9.42-2.92,2.6-.9c5.24-1.66,3.04-3.45-2.4-2.43l-5.2,1.74-7.18-2.23v-1.11c4.67-1.54,9.45-2.53,14.29-2.18,7.19.52,11.86,2.11,12.51,5.04.41,1.74-1.22,3.61-5.03,4.95Z"/><polygon class="uuid-5265bd16-79aa-4724-a6e9-4fe94df946fb" points="21.7 26.21 21.7 27.66 19.48 26.97 21.7 26.21"/><polygon class="uuid-e6093373-0d28-4278-bfe0-965717a8b195" points="56.74 38.55 42.24 43.68 35.14 41.42 35.14 39.79 47.31 35.63 47.32 35.63 56.74 38.55"/><polygon class="uuid-c895dc9f-b6d7-4805-88cf-5956dccf4485" points="21.7 35.27 21.7 37.15 18.83 36.24 21.7 35.27"/><polygon class="uuid-33983efa-aa2a-4619-a143-721670e65009" points="42.32 34.04 35.14 36.5 35.14 31.81 42.32 34.04"/><path class="uuid-f49be4c4-9943-47c3-8448-efaa7260f613" d="M21.7,27.66v4l-8.15,2.91-8.58-2.72c.08,0,.16-.04.21-.04l14.3-4.84,2.22.69Z"/></svg>
