<?xml version="1.0" encoding="UTF-8"?><svg id="uuid-35ad0426-69c3-402c-9492-ed3b9671b699" xmlns="http://www.w3.org/2000/svg" xmlns:xlink="http://www.w3.org/1999/xlink" viewBox="0 0 133.55 49.22"><defs><style>.uuid-a9bdfa61-8d75-4351-bf76-6f69055959be{fill:url(#uuid-9ee5ab49-0729-4552-8aa6-e1c7b3d24a7c);}.uuid-f242bd8f-2aae-4628-b365-3fdb7be446ef{fill:url(#uuid-ae19d0b7-1ce1-4d2e-a702-a646f6990080);}.uuid-53a30d8a-f992-4697-91e1-3f52eebd5f2f{fill:url(#uuid-b8b6cdbc-ad06-4a1e-89d1-222d5a1fa472);}</style><linearGradient id="uuid-b8b6cdbc-ad06-4a1e-89d1-222d5a1fa472" x1="1.9" y1="26.86" x2="137.4" y2="29.53" gradientUnits="userSpaceOnUse"><stop offset=".08" stop-color="#36393e"/><stop offset=".13" stop-color="#646a70"/><stop offset=".24" stop-color="#36393e"/><stop offset=".72" stop-color="#36393e"/><stop offset=".85" stop-color="#646a70"/><stop offset=".9" stop-color="#383b40"/></linearGradient><linearGradient id="uuid-ae19d0b7-1ce1-4d2e-a702-a646f6990080" x1="64.88" y1="3.17" x2="68.29" y2="21.35" gradientUnits="userSpaceOnUse"><stop offset="0" stop-color="#181a1c"/><stop offset=".18" stop-color="#36393e"/><stop offset=".72" stop-color="#36393e"/><stop offset=".85" stop-color="#646a70"/><stop offset="1" stop-color="#646a70" stop-opacity="0"/></linearGradient><linearGradient id="uuid-9ee5ab49-0729-4552-8aa6-e1c7b3d24a7c" x1="68.64" y1="3.34" x2="71.62" y2="19.47" gradientUnits="userSpaceOnUse"><stop offset="0" stop-color="#181a1c"/><stop offset=".08" stop-color="#36393e"/><stop offset=".72" stop-color="#36393e"/><stop offset=".85" stop-color="#646a70"/><stop offset="1" stop-color="#646a70" stop-opacity="0"/></linearGradient></defs><path class="uuid-53a30d8a-f992-4697-91e1-3f52eebd5f2f" d="M0,49.22l3.31-18.33S49.71,13,132.31,7.03l1.24,17.51L0,49.22Z"/><path class="uuid-f242bd8f-2aae-4628-b365-3fdb7be446ef" d="M3.31,30.89c13.91-10.6,17.23-15.9,59.85-26.72s69.14,2.87,69.14,2.87c0,0,1.64,1.88-1.67,3.2S19.1,30.45,10.6,32.43s-7.29-1.55-7.29-1.55Z"/><path class="uuid-a9bdfa61-8d75-4351-bf76-6f69055959be" d="M132.31,7.03s1.86,2.71-1.67,3.2C85.91,16.52,19.1,29.45,10.6,31.44"/></svg>
