<?xml version="1.0" encoding="UTF-8"?><svg id="uuid-8b076826-91b1-4845-ae9a-302a812cf61f" xmlns="http://www.w3.org/2000/svg" viewBox="0 0 67.99 53.66"><g id="uuid-7e7c2204-d442-4f69-bcc6-ca21b784cc94"><path d="M60.89,45.1l-24.41,8.56-13.07-4.25v-1.26c-3.12.58-6.38.6-9.71.05-.49-.08-1-.16-1.51-.24C6.61,47.1.3,46.12.01,41.27c-.22-3.71,2.46-6.97,6.99-8.51l.55-.16,15.86-5.36V1.79c0-1.17,1.11-2.02,2.24-1.72l14.29,3.79c12.77,3.42,15.38,11.06,15.31,16.87v8.81c7.62.92,11.75,3.27,12.61,7.13.3,1.27.7,5.75-6.97,8.44Z"/></g></svg>
