<?xml version="1.0" encoding="UTF-8"?><svg xmlns="http://www.w3.org/2000/svg" viewBox="0 0 58.19 73.32"><path d="M58.06,19.19c-.03.33-.06.65-.07.96-.22,4.68-.66,16.06-.88,22.23.1,1.67.03,7.24-4.34,11.79-1.16,1.21-2.67,2.89-4.28,4.68-2.52,2.8-5.36,5.97-7.78,8.33-3.62,3.55-6.02,5.9-11.41,6.14h-.42c-5.39-.23-7.79-2.58-11.41-6.14-2.42-2.36-5.27-5.54-7.78-8.33-1.61-1.78-3.12-3.47-4.28-4.68-4.37-4.55-4.43-10.11-4.34-11.79-.23-6.17-.66-17.53-.88-22.24-.02-.3-.04-.62-.07-.96-.22-2.74-.64-7.84,3.35-12.18,2.19-2.38,5.32-4.12,9.54-5.28C17.24.57,22.55,0,29.09,0h0c13.1.02,21.23,2.25,25.61,7.01,3.99,4.34,3.57,9.44,3.35,12.19Z"/></svg>
