<?xml version="1.0" encoding="UTF-8"?><svg id="uuid-f7dc9661-fbfb-4e6c-a371-6a188593b4cc" xmlns="http://www.w3.org/2000/svg" viewBox="0 0 129.77 98.6"><defs><style>.uuid-14578b4d-17ab-463d-8a67-854117a8aa95{fill:#f3c202;}.uuid-14578b4d-17ab-463d-8a67-854117a8aa95,.uuid-00a9fb96-b0dd-4603-81c8-a2b163cf3b5b,.uuid-00cca5bc-fb72-4371-a314-28dd8e23edc8,.uuid-5e5270d6-575f-4049-a988-c87061625dce{fill-rule:evenodd;}.uuid-00a9fb96-b0dd-4603-81c8-a2b163cf3b5b{fill:#de0029;}.uuid-00cca5bc-fb72-4371-a314-28dd8e23edc8{fill:#326db3;}.uuid-5e5270d6-575f-4049-a988-c87061625dce{fill:#00aa9e;}</style></defs><g id="uuid-4a365344-4cc4-4295-9f98-dcea011b46ee"><path id="uuid-6fe53e60-2581-4c12-b633-dbccfd9fb007" class="uuid-00a9fb96-b0dd-4603-81c8-a2b163cf3b5b" d="M70.02,20.5l-.09,78.1-20.92-6.81V0l26.71,7.06c17.1,4.59,27.56,13.53,27.39,29.18-.17,18.21-8.59,25.52-25.01,20.76V21.1c0-4.34-8.08-4.59-8.08-.59h0Z"/><path id="uuid-04a510ab-7e44-4704-b5c8-9bbf101cd880" class="uuid-14578b4d-17ab-463d-8a67-854117a8aa95" d="M39.4,76.65l-9.87,3.32c-6.38,2.21-11.82-2.98-5.95-5.1l4.76-1.7-17.95-5.7C4.86,69.33-.33,73.33.02,78.95c.34,5.7,13.35,7.06,23.39,8.68,9.36,1.53,17.86.68,25.6-2.04v-5.87l-9.61-3.06h0ZM70.1,98.6l18.29-6.38-18.46-5.87v11.82l.17.43h0Z"/><path id="uuid-af84cd5a-816b-432a-872c-a90dc6bce5d2" class="uuid-00cca5bc-fb72-4371-a314-28dd8e23edc8" d="M118.76,81.5l.34-.09c8-2.81,11.4-6.72,10.55-10.38-1.36-6.12-11.14-9.44-26.2-10.55-10.8-.77-21.43,1.62-31.81,5.19l-1.7.6,18.63,5.78,10.89-3.66c11.4-2.13,15.99,1.62,5.02,5.1l-5.44,1.87,19.73,6.13h0ZM49.01,54.45l-8.25,2.81,8.25,2.55v-5.36h0Z"/><path id="uuid-d5dba6f3-b6b7-482c-b4f8-47a04ec75dee" class="uuid-5e5270d6-575f-4049-a988-c87061625dce" d="M88.39,92.22l30.37-10.72-19.73-6.13-29.09,9.95v1.02l18.46,5.87h0ZM49.01,73.42l-9.61,3.23,9.61,3.06v-6.3h0ZM69.93,78.44v-12.17l18.63,5.78-18.63,6.38h0ZM28.34,73.16l20.67-7.4v-5.96l-8.25-2.55-29.94,10.12c-.09,0-.26.08-.43.08l17.95,5.7h0Z"/></g></svg>
